<svg xmlns="http://www.w3.org/2000/svg" height="220" width="800">
    <polyline points="0.0,172.37762890375862 56.94798854433987,6.284897723869108 60.14584550829955,0.0 77.39648707608431,100.55836358190598 83.51996573465411,119.41305675351336 87.1960493217712,125.69795447738248 104.60186499308523,106.8432613057751 112.27617723604976,119.41305675351336 115.33973146713032,119.41305675351336 120.27172709684677,119.41305675351336 123.7118734505276,119.41305675351336 129.61484154092423,125.69795447738248 134.0059964355329,125.69795447738248 139.44979437162655,119.41305675351336 143.94349121769022,113.12815902964424 149.77749303985163,106.8432613057751 155.3719278249854,106.8432613057751 159.43640039637455,113.12815902964424 167.72777924986482,94.27346585803686 170.6416040828031,81.7036704102986 173.62530263487446,69.13387496256036 178.6453210016806,50.279181790952975 181.66078033517607,43.99428406708387 197.16639382643007,62.84897723869123 232.36096944794318,94.27346585803686 234.91090647085088,94.27346585803686 259.79321008940207,143.30922400011664 274.9376581233189,121.04675243936617 288.3833580764945,131.34998751155916 302.21290975945294,140.21856898032448 322.2575926416622,136.48560055560185 341.9075343833145,151.29834087568787 343.66526677241495,153.40457162482787 351.38222920757755,154.1472121091041 361.9367906002606,136.3658261172292 364.699071133261,133.65816899379095 370.63833725957085,138.28213039960264 374.12113380544974,140.3516026674252 379.351680780553,147.65075655748245 384.25463798153885,149.4776814238556 389.41077398301974,147.57731752757905 391.96706316221224,146.86935396649426 409.67868978609573,135.76973551991165 417.8049125761805,126.27119937028678 426.42841845827724,124.10657312243526 433.62631897987995,135.01615815780332 438.65631930656235,149.46134760316116 457.02131057688473,165.37660730760004 460.40247262220646,171.9654326295592 484.0334014526474,180.0 486.3446788894253,175.14007588008428 500.00000000000006,172.37762890375862 0.0,172.37762890375862" style="fill:white;stroke:red;stroke-width:4" />
    Su agente de usuario no soporta SVG
    </svg>