<svg xmlns="http://www.w3.org/2000/svg" width="3779.528" height="3396.543" viewBox="0 0 1000 898.669"><path d="m872.442 108.493-415.79 322.633H290.494l43.1-137.974-270.96 207.612H362.76L218.74 612.321h136.198L499.19 500.764h246.09l-39.093 111.557H816.3l38.907-111.557H978.04l84.596-67.023v-2.615H875.713l105.792-322.633Zm-47.45 143.02-59.11 179.613H588.936Z" style="opacity:1;fill:#000;fill-opacity:1;stroke:none;stroke-width:.812018px;stroke-linecap:butt;stroke-linejoin:miter;stroke-opacity:1" transform="translate(-62.636 -108.493)"/><path d="M728.287 702.185v85.539h21.235V724.39l119.327 65.701.151-87.906h-21.633v52.92l-95.85-52.92z" style="fill:#000;fill-opacity:1;stroke:none;stroke-width:.436629px;stroke-linecap:butt;stroke-linejoin:miter;stroke-opacity:1" transform="translate(-62.636 -108.493)"/><path d="M631.635 702.186h23.022v85.539h-23.022z" style="fill:#000;fill-opacity:1;stroke:none;stroke-width:56.1089;stroke-linecap:round;paint-order:stroke fill markers" transform="translate(-62.636 -108.493)"/><path d="M434.162 702.177v85.547h23.02l.05-14.285.05-14.285 40.785-.068c43.214-.067 42.172-.045 47.433-1.044 6.043-1.14 10.155-2.699 14.29-5.415 2.566-1.686 5.559-4.693 6.891-6.923.808-1.355 1.848-3.423 1.72-3.423-.068 0-.022-.118.101-.27.327-.394.958-2.35 1.41-4.372 1.226-5.482.959-11.823-.703-16.738-1.152-3.408-3.256-6.818-5.662-9.177-1.829-1.794-4.685-3.831-7.03-5.016-1.308-.661-6.223-2.497-7.293-2.724-.463-.101-1.691-.362-2.728-.586-5.38-1.16-1.593-1.088-59.391-1.156zm23.022 15.278 37.857.067c32.624.068 38.077.119 39.445.374 8.053 1.513 11.054 4.677 11.353 11.968.118 2.898-.207 4.662-1.247 6.767-1.707 3.454-5.33 5.63-11.295 6.786-1.393.27-6.175.318-38.712.38-20.418.033-37.186.01-37.262-.068-.076-.079-.14-6.021-.14-13.21z" style="fill:#000;fill-opacity:1;stroke-width:.198467" transform="translate(-62.636 -108.493)"/><path d="M143.198 699.507 62.636 787.72h26.956l14.382-16.274h78.492l14.254 16.278h27.131zm.014 27.983 25.479 28.678h-50.919z" style="fill:#000;fill-opacity:1;stroke:none;stroke-width:.436629px;stroke-linecap:butt;stroke-linejoin:miter;stroke-opacity:1" transform="translate(-62.636 -108.493)"/><path d="M942.63 702.185v85.539h115.81299999999999l4.193-15.282h-96.984V752h93.874V736.52h-93.874v-19.052999999999997h93.874v-15.282h-58.448zM274.001 702.185v85.54l105.047-.101 6.41-15.084-88.435-.101v-70.256z" style="fill:#000;fill-opacity:1;stroke-width:.198467" transform="translate(-62.636 -108.493)"/><path d="m490.02 988.42-20.616 18.742h64.58L554.6 988.42z" style="opacity:1;fill:#006fba;fill-opacity:1;stroke:none;stroke-width:24.0418;stroke-linecap:round;stroke-dashoffset:131.528;paint-order:stroke fill markers" transform="translate(-62.636 -108.493)"/><path d="M326.958 920.537v-58.342H367.9v6.885h-32.91v18.067h28.48v6.885h-28.48v26.505z" style="font-style:normal;font-variant:normal;font-weight:400;font-stretch:normal;font-size:7.45943px;line-height:1.25;font-family:Arial;-inkscape-font-specification:Arial;fill:#000;stroke-width:2.07816" transform="translate(-62.636 -108.493)"/><path d="M533.562 920.537V869.08H514.14v-6.885h46.723v6.885h-19.502v51.457z" style="font-style:normal;font-variant:normal;font-weight:400;font-stretch:normal;font-size:7.45943px;line-height:1.25;font-family:Arial;-inkscape-font-specification:Arial;fill:#000;stroke-width:2.04814" transform="translate(-62.636 -108.493)"/><path d="M590.624 920.537v-58.342h39.053v6.885h-31.905v17.868h29.879v6.845h-29.88v19.859h33.159v6.885z" style="font-style:normal;font-variant:normal;font-weight:400;font-stretch:normal;font-size:7.45943px;line-height:1.25;font-family:Arial;-inkscape-font-specification:Arial;fill:#000;stroke-width:1.96052" transform="translate(-62.636 -108.493)"/><path d="m654.302 920.537 23.176-58.342h8.604l24.7 58.342h-9.098l-7.04-17.67H669.41l-6.628 17.67zm17.413-23.958h20.46l-6.299-16.157q-2.881-7.363-4.281-12.098-1.153 5.61-3.252 11.143z" style="font-style:normal;font-variant:normal;font-weight:400;font-stretch:normal;font-size:7.45943px;line-height:1.25;font-family:Arial;-inkscape-font-specification:Arial;fill:#000;stroke-width:2.07237" transform="translate(-62.636 -108.493)"/><path d="M738.446 920.537v-58.342h12.496l14.849 41.309q2.054 5.77 2.995 8.636 1.07-3.184 3.338-9.353l15.02-40.592h11.17v58.342h-8.003v-48.83l-18.23 48.83h-7.489l-18.144-49.666v49.666z" style="font-style:normal;font-variant:normal;font-weight:400;font-stretch:normal;font-size:7.45943px;line-height:1.25;font-family:Arial;-inkscape-font-specification:Arial;fill:#000;stroke-width:2.11292" transform="translate(-62.636 -108.493)"/><path d="M394.22 861.958v7.12h13.54v51.459h7.706v-58.58z" style="fill:#000;stroke:none;stroke-width:22.0257;stroke-linecap:round;stroke-dashoffset:131.528;paint-order:stroke fill markers" transform="translate(-62.636 -108.493)"/><text xml:space="preserve" x="441.342" y="880.248" style="font-size:30.8798px;line-height:1.25;font-family:&quot;Britannic Bold&quot;;-inkscape-font-specification:&quot;Britannic Bold, &quot;;fill:#000;stroke-width:.771993" transform="translate(-62.636 -108.493)"><tspan x="441.342" y="880.248" style="font-style:normal;font-variant:normal;font-weight:400;font-stretch:normal;font-family:Arial;-inkscape-font-specification:Arial;fill:#000;stroke-width:.771993">®</tspan></text><path d="m591.288 988.42-20.616 18.742h64.58l20.616-18.742z" style="opacity:1;fill:#db090a;fill-opacity:1;stroke:none;stroke-width:24.0418;stroke-linecap:round;stroke-dashoffset:131.528;paint-order:stroke fill markers" transform="translate(-62.636 -108.493)"/><path d="m554.6 988.42-20.616 18.742h36.688l20.616-18.742z" style="opacity:1;fill:#fff;stroke:none;stroke-width:2.99775px;stroke-linecap:butt;stroke-linejoin:miter;stroke-opacity:1" transform="translate(-62.636 -108.493)"/></svg>