<svg xmlns="http://www.w3.org/2000/svg" width="300" height="98.51"><path fill="#fff" d="M152.89 49.044c0 12.834.089 32.673.583 49.466h.108c.494-16.79.589-37.509.589-50.296 0-4.73-.014-28.728-.589-48.214h-.108c-.395 13.409-.584 30.834-.584 49.044M65.724 42.392c-17.052 0-43.412.087-65.724.581v.11c22.31.495 49.837.589 66.836.589 6.287 0 38.17-.016 64.061-.589v-.11c-17.827-.394-40.979-.581-65.173-.581" style="fill:#d0db25;fill-opacity:1;stroke-width:.174639"/><path fill="#fff" d="M123.664 5.554H75.257c-.873 0-2.096-.016-3.393 1.28-1.223 1.222-.86 2.445-2.885 2.445h-7.063c-2.024 0-1.653-1.21-2.883-2.445-1.297-1.296-2.52-1.28-3.393-1.28H7.232c-1.66 0-2.384 1.473-1.595 2.794l.874 1.456c.466.8 1.082.924 1.533 1.013.417.084.667.135.99.699l.768 1.351c.593 1.097 1.305 1.226 1.827 1.324.42.08.793.114 1.308 1.048.557 1.015 1.31 2.296 3.076 2.822l18.084 5.274c1.88.61 2.36 1.298 2.916 2.096.29.417 1.188 1.92 3.624 2.583l17.196 4.647c1.614.435 2.742-.175 3.525-.873l3.119-2.953c.801-.758 1.142-.758 1.942 0l3.119 2.953c.784.698 1.91 1.31 3.524.873l17.197-4.647c2.445-.657 3.333-2.166 3.625-2.583.555-.798 1.034-1.486 2.915-2.096l18.085-5.274c1.766-.524 2.519-1.807 3.076-2.822.515-.936.889-.97 1.308-1.048.524-.098 1.235-.234 1.827-1.332l.768-1.352c.321-.564.573-.615.989-.699.45-.089 1.067-.213 1.535-1.013l.873-1.456c.79-1.312.064-2.785-1.596-2.785M7.256 8.55l-.524-.873c-.159-.264-.26-.85.49-.85H55.64c.976 0 2.078-.013 3.143 1.839a6 6 0 0 0 .51.79H10.23c-1.997 0-2.382.011-2.97-.904m31.4 1.888h53.577v8.395H38.66Zm-27.562 2.07c-.453-.455-.75-1.398-1.16-1.955l27.768-.115v1.222l-23.502 1.364c-1.818.12-2.57.018-3.106-.524m3.636 3.209a8 8 0 0 1-.678-1.076 5 5 0 0 0-.307-.496c.338-.02.401-.028 1.028-.067l22.92-1.414v1.306l-18.108 1.937c-2.445.26-4.103.627-4.855-.2m6.204 2.468-3.298-.96c2.196-.264 20.053-2.256 20.053-2.256v1.456L26.08 18.272c-1.334.217-2.953.482-5.145-.1m8.056 2.343-3.667-1.07c.349-.048.555-.085.94-.15L37.71 17.39v1.572l-4.312 1.222c-.037.01-2.686.805-4.403.335m5.467 1.595-2.114-.617a13 13 0 0 0 1.333-.325l4.68-1.369h5.24l-4.843 2.255c-1.544.602-2.915.42-4.291.056m4.81 3.901c-.586-.4-.888-.835-1.223-1.306a6.5 6.5 0 0 0-1.017-1.223 6.5 6.5 0 0 0 1.14-.174 17 17 0 0 0 1.828-.688l5.824-2.831h3.875L42.088 25.2c-1.172.76-2.104 1.048-2.812.81m5.751 1.87-3.73-1.008a8.3 8.3 0 0 0 1.397-.751c.388-.253-.06.064 8.788-6.322h3.241l-5.969 6.112c-1.048 1.076-2.2 2.27-3.72 1.975m5.892 1.593-3.51-.95c.962-.559 1.81-1.497 2.14-1.839l6.636-6.884h2.916l-5.293 8.251c-.873 1.317-1.869 1.602-2.896 1.415m6.158 1.663-3.737-1.01a4.7 4.7 0 0 0 1.465-1.53l5.541-8.796h2.512s-3.254 9.533-3.48 10.014c-.649 1.397-1.398 1.503-2.3 1.322m13.314-.297-3.095-2.93c-1.297-1.223-2.401-1.223-3.697 0l-3.095 2.93a3 3 0 0 1-.714.487c.573-.699.907-1.703 1.123-2.358l3.067-9.168h2.934l3.066 9.168c.226.676.557 1.658 1.125 2.358a3 3 0 0 1-.714-.487m3.426.297c-.906.174-1.65.075-2.3-1.322-.225-.484-3.479-10.014-3.479-10.014h2.515l5.541 8.796a4.65 4.65 0 0 0 1.466 1.53zm6.167-1.663c-1.029.187-2.024-.098-2.898-1.415L71.794 19.8h2.918l6.637 6.884c.33.35 1.177 1.28 2.139 1.839zm5.89-1.593c-1.517.295-2.668-.899-3.718-1.975l-5.969-6.112h3.241s8.4 6.069 8.788 6.322a8.3 8.3 0 0 0 1.397.75zm6.968-3.175c-.328.472-.63.907-1.222 1.307-.699.23-1.64-.05-2.812-.81-.333-.215-7.625-5.402-7.625-5.402h3.877s4.482 2.21 5.823 2.83c.747.35 1.715.794 2.969.856a6.5 6.5 0 0 0-1.017 1.223m3.612-2.595c-1.378.367-2.747.546-4.291-.056-.557-.215-4.843-2.255-4.843-2.255h5.24l4.68 1.37a14 14 0 0 0 1.332.324l-2.113.617m5.468-1.595c-1.717.47-4.403-.335-4.403-.335l-4.313-1.222v-1.572l11.446 1.907c.386.064.602.101.94.148l-3.666 1.07m8.043-2.345c-2.191.582-3.812.317-5.146.1L93.2 16.409v-1.456l20.055 2.256-3.295.96m6.873-3.543a8 8 0 0 1-.668 1.085c-.753.826-2.42.459-4.857.199L93.2 13.964v-1.313l22.92 1.414c.628.039.698.048 1.028.067a6 6 0 0 0-.315.494m2.62-1.958c-.885.566-1.89.402-4.874.23l-21.37-1.24v-1.223l27.756.12c-.567.797-.728 1.61-1.512 2.108m4.715-4.986-.524.873c-.592.917-.98.907-2.969.905H71.602a6 6 0 0 0 .51-.791c1.062-1.851 2.164-1.84 3.143-1.84h48.423c.749 0 .647.588.487.851m-54.68 9.48a104 104 0 0 0-.28-3.016 32 32 0 0 0-1.492 2.944h-.327c-.814-1.66-.91-1.851-1.142-2.286-.075-.141-.175-.316-.328-.627a78 78 0 0 0-.28 2.985h-.845c.241-1.747.625-4.715.657-4.962h.508s1.2 2.396 1.724 3.3c.607-1.113 1.002-1.91 1.784-3.3h.46c.082.715.349 2.987.592 4.962zm15.302-4.962H83.8v4.962h.987zm-2.951 4.962v-4.228a12 12 0 0 1 1.476.105v-.839h-4v.835a14 14 0 0 1 1.544-.101v4.228zm-30.983 0v-4.228a12 12 0 0 1 1.476.105v-.839h-4v.835a14 14 0 0 1 1.544-.101v4.228zm11.48 0v-4.962h-.773v3.203l-2.958-3.203h-.55v4.962h.779V13.8l3.003 3.355zM45.06 15.758v1.107a2.3 2.3 0 0 0 1.351.417c1.07 0 2.017-.6 2.017-1.624a1.34 1.34 0 0 0-.847-1.263c-.621-.282-1.026-.349-1.3-.58-.491-.413-.093-1.075.576-1.075.202 0 .698.054.838.55h.367v-.908a3 3 0 0 0-1.24-.313 1.82 1.82 0 0 0-1.092.35c-.758.553-.967 1.678.107 2.324.672.403 1.594.35 1.617 1.092.016.546-.507.749-.896.749-.777 0-1.022-.687-1.086-.825zm-.027 1.397-2.174-5.065h-.412l-2.255 5.065h.931a14 14 0 0 1 .482-1.397h1.766c.222.543.393 1.03.524 1.397zm-3.154-2.047c.109-.25.126-.295.612-1.44.475 1.09.511 1.168.62 1.44zm15.531-.435c0-1.746-1.303-2.647-2.576-2.647s-2.576.89-2.576 2.647 1.303 2.65 2.58 2.65c1.276 0 2.576-.893 2.576-2.65m-2.576 1.995c-.785 0-1.49-.737-1.49-1.995 0-1.308.75-1.994 1.49-1.994s1.49.686 1.49 1.994-.752 1.995-1.49 1.995m20.956.487h.978V15.11h.245l1.657 2.043h1.223l-1.87-2.18a1.9 1.9 0 0 0 .66-.41 1.373 1.373 0 0 0 0-1.949c-.29-.288-.624-.456-1.473-.456 0 0-1.135.01-1.427.032zm.975-4.366a3 3 0 0 1 .337-.025c1.007 0 1.039.753 1.039.853 0 .524-.463.995-1.376.838zm-1.223 4.366-2.174-5.065h-.412l-2.255 5.065h.931a14 14 0 0 1 .482-1.397h1.755c.222.543.393 1.03.524 1.397zm-3.164-2.047c.108-.25.127-.295.613-1.44.473 1.09.512 1.168.618 1.44zm17.69 2.047v-4.962h-.775v3.203l-2.956-3.203h-.552v4.962h.78V13.8l3.003 3.355zM56.396 84.913h-.616L52.02 93.35h1.436a24 24 0 0 1 .819-2.356h3.067c.375.915.665 1.746.885 2.356h1.794zm-.581 2.445c.91 2.096.922 2.096 1.135 2.653h-2.27c.239-.554.242-.566 1.126-2.653M113.674 84.913h-.618l-3.758 8.437h1.437a23 23 0 0 1 .82-2.356h3.066c.374.915.663 1.746.885 2.356h1.792zm-.583 2.445c.91 2.096.922 2.096 1.137 2.653h-2.27c.237-.554.24-.566 1.124-2.653M34.837 93.35a187 187 0 0 0-.489-5.24c-1.416 2.55-2.033 3.795-2.606 5.112h-.482c-1.432-2.925-1.582-3.21-1.912-3.83a99 99 0 0 1-.648-1.236c-.061.524-.32 2.833-.49 5.189h-1.293c.41-2.97 1.058-7.978 1.095-8.268h.767l.339.678c.948 1.893 1.695 3.388 2.603 4.94l.013.021.014-.023c.408-.749.78-1.449 1.14-2.127a152 152 0 0 1 1.895-3.492h.69c.03.262.497 4.346.983 8.267zM125.8 93.35c-.215-2.62-.37-4.192-.488-5.24-1.416 2.55-2.033 3.795-2.605 5.112h-.475c-1.433-2.925-1.583-3.21-1.913-3.83a99 99 0 0 1-.648-1.236 130 130 0 0 0-.49 5.189h-1.3c.41-2.97 1.059-7.978 1.095-8.268h.767l.339.678c.948 1.893 1.695 3.388 2.604 4.94l.012.021.012-.023c.41-.749.782-1.449 1.142-2.127a152 152 0 0 1 1.895-3.492h.692c.03.262.499 4.346.985 8.267zM13.751 93.633a4.3 4.3 0 0 1-2.986-1.151c-.699-.664-1.31-1.727-1.31-3.266s.61-2.604 1.31-3.266a4.3 4.3 0 0 1 2.986-1.15c1.048 0 3.06.436 3.936 2.535a4.8 4.8 0 0 1 .35 1.881c0 1.54-.61 2.604-1.31 3.266a4.3 4.3 0 0 1-2.985 1.15m0-.984c1.28 0 2.578-1.18 2.578-3.432 0-2.253-1.298-3.432-2.578-3.432-1.276 0-2.565 1.18-2.565 3.432 0 2.253 1.297 3.432 2.58 3.432zM68.37 93.633a4.3 4.3 0 0 1-2.985-1.151c-.699-.664-1.31-1.727-1.31-3.266s.608-2.604 1.31-3.266a4.29 4.29 0 0 1 2.984-1.15c1.048 0 3.062.436 3.939 2.535a4.8 4.8 0 0 1 .349 1.881c0 1.54-.608 2.604-1.308 3.266a4.3 4.3 0 0 1-2.987 1.15m0-.984c1.282 0 2.58-1.18 2.58-3.432 0-2.253-1.298-3.432-2.58-3.432-1.28 0-2.577 1.18-2.577 3.432 0 2.253 1.297 3.432 2.577 3.432M19.514 85.072c.45-.028 2.332-.047 2.35-.047 1.415 0 1.969.276 2.446.754a2.22 2.22 0 0 1 .665 1.649 2.3 2.3 0 0 1-.669 1.558 3.2 3.2 0 0 1-1.172.71l3.109 3.652H24.35l-2.794-3.45h-.507v3.455h-1.533zm2.155.86a4 4 0 0 0-.615.046h-.012v2.924h.01a3.6 3.6 0 0 0 .631.06c1.24 0 1.804-.794 1.804-1.53a1.5 1.5 0 0 0-.417-1.022c-.316-.318-.788-.479-1.397-.479M46.75 93.348v-8.27h1.534v7.175h3.418l-.002 1.095zM89.483 85.407h-.632v-.328h1.678v.328h-.64v1.825h-.406zM92.716 86.354c-.012-.278-.03-.613-.026-.905h-.01c-.072.262-.165.554-.263.824l-.323.933h-.326l-.297-.92a10 10 0 0 1-.224-.837c-.009.281-.023.624-.038.917l-.051.873h-.379l.148-2.153h.538l.29.873c.08.252.149.508.205.747h.01c.06-.234.135-.499.22-.75l.308-.863h.536l.127 2.153h-.395zM80.509 93.35c-.35-.44-2.812-3.158-5.168-5.763v5.763h-1.196v-8.268h.845l5.085 5.51v-5.51h1.19v8.268zM98.585 93.35v-7.148a24 24 0 0 0-2.609.164v-1.284h6.637v1.29a19.5 19.5 0 0 0-2.496-.175v7.146zM84.647 92.251v-2.668H87.6v-1.006h-2.952v-2.445c.699 0 1.686 0 3.368.103v-1.167h-4.903v8.268h5.039v-1.203c-1.111.064-2.393.118-3.504.118M105.225 92.251v-2.668h2.953v-1.006h-2.953v-2.445c.699 0 1.685 0 3.369.103v-1.167h-4.902v8.268h5.038v-1.203a64 64 0 0 1-3.505.118M43.562 85.079c.056 3.178.03 4.436.03 4.436 0 1.032-.063 2.893-2.063 2.893-.707 0-2.123-.117-2.123-2.472 0-2.136.052-4.761.054-4.857h-1.612v4.85c0 3.39 2.731 3.533 3.41 3.533 1.956 0 3.493-.891 3.528-3.598l.01-4.785zM8.5 86.265v-1.18H3.47v8.27h1.535v-3.56h3.116V88.71H5.005v-2.566c1.544 0 2.445.044 3.493.114M130.455 52.346a1.626 1.626 0 1 1-1.63-1.626 1.63 1.63 0 0 1 1.63 1.626m-.22 0a1.397 1.397 0 1 0-1.397 1.413 1.415 1.415 0 0 0 1.397-1.413m-1.11.14.49.754h-.382l-.442-.717h-.257v.717h-.31v-1.797h.677a.547.547 0 0 1 .555.538.505.505 0 0 1-.338.505m-.584-.234h.334a.26.26 0 0 0 .272-.258.257.257 0 0 0-.272-.252h-.334zM69.506 56h2.445v14.67h-2.445zm-8.948-.327a6.7 6.7 0 0 0-4.279 1.535V56h-2.445v14.67h2.445v-8.277a4.279 4.279 0 1 1 8.557 0v8.27h2.445v-8.268a6.72 6.72 0 0 0-6.721-6.722m-11.609.323h2.445v14.111c0 4.226-3.692 7.653-7.652 7.653-3.652 0-6.333-2.229-7.288-5.306h2.62c.81 1.698 2.396 2.86 4.66 2.86 2.608 0 5.208-2.33 5.208-5.207v-1.18a7.65 7.65 0 1 1 0-11.212zm0 7.335a5.208 5.208 0 1 0-5.207 5.208 5.21 5.21 0 0 0 5.207-5.208m-37.828-5.215a5.21 5.21 0 0 1 4.715 3.004h2.607a7.653 7.653 0 1 0 0 4.41h-2.602a5.21 5.21 0 1 1-4.715-7.414m23.782 5.208a7.653 7.653 0 1 1-7.65-7.65 7.65 7.65 0 0 1 7.65 7.65m-2.445 0a5.208 5.208 0 1 0-5.206 5.208 5.21 5.21 0 0 0 5.206-5.208m79.952-7.65a6.7 6.7 0 0 0-4.277 1.534v-1.207h-2.445v14.67h2.445v-8.278a4.279 4.279 0 1 1 8.557 0v8.27h2.445v-8.268a6.72 6.72 0 0 0-6.722-6.722m-11.61.332h2.445v14.66h-2.445v-1.733a7.65 7.65 0 1 1-5.207-13.259 7.63 7.63 0 0 1 5.207 2.045zm0 7.32a5.208 5.208 0 1 0-5.207 5.209 5.21 5.21 0 0 0 5.207-5.208m26.504-4.89V55.99h-3.67v-4H121.2v13.776a4.89 4.89 0 0 0 4.89 4.89h1.223v-2.445h-1.223a2.445 2.445 0 0 1-2.445-2.445v-7.335ZM70.729 50.71a1.624 1.624 0 1 0 1.624 1.624 1.62 1.62 0 0 0-1.624-1.624M86.635 56H74.41v2.445h9.067l-9.053 9.78v2.445H86.65v-2.445h-9.07l9.052-9.78zM290.096 39.4A9.954 9.954 0 1 0 300 49.355a9.98 9.98 0 0 0-9.904-9.955m0 15.391a5.402 5.402 0 1 1 0-10.801 5.375 5.375 0 0 1 5.372 5.372c0 2.969-2.406 5.43-5.372 5.43M253.62 39.178a17.1 17.1 0 0 0-6.214 1.176c-1.455-.84-2.856-1.176-4.87-1.176a24 24 0 0 0-7.89 1.286l-.504.174v18.296h4.979v-15a8.2 8.2 0 0 1 2.794-.449c2.46 0 3.189.786 3.189 3.358v12.09h5.035V46.509c0-1.118-.056-1.848-.22-2.518 1.006-.334 1.79-.505 2.682-.505 2.354 0 3.416 1.065 3.416 3.358v12.09H261V46.448c0-2.462-.393-3.915-1.513-5.15-1.234-1.343-3.304-2.124-5.875-2.124" style="fill:#01574e;fill-opacity:1;stroke-width:.174639"/><path fill="#fff" d="M273.58 54.99c-3.318 0-5.221-2.059-5.221-5.658 0-3.687 1.921-5.8 5.27-5.8a5.82 5.82 0 0 1 3.776 1.242l2.106-3.615a8 8 0 0 0-2.958-1.49c-1.294-.39-3.19-.449-3.19-.449-5.99 0-10.006 4.157-10.006 10.33 0 5.938 3.81 9.77 9.722 9.77 0 0 3.958.174 6.616-2.29l-2.482-3.185c-1.346.857-2.27 1.145-3.632 1.145M208.652 39.346c-7.112 0-10.41 3.133-10.41 9.794v9.794h5.09v-9.85c0-3.358 1.905-5.428 4.87-5.428a11.2 11.2 0 0 1 2.854.391l1.176-4.42a28 28 0 0 0-3.58-.28M231.232 48.581v10.353h-6.821c-4.701 0-6.77-.337-9.233-1.96-2.129-1.456-3.304-4.191-3.304-7.78 0-4.925 3.244-9.905 10.408-9.905 5.82 0 8.956 3.248 8.956 9.292m-4.983.557c0-3.751-1.455-5.588-4.366-5.588-2.969 0-4.869 2.183-4.869 5.482 0 3.974 1.9 5.712 6.155 5.712h3.077zM195.472 48.58v10.354h-6.773c-4.7 0-6.774-.337-9.233-1.96-2.127-1.456-3.302-4.191-3.302-7.78 0-4.925 3.244-9.905 10.408-9.905 5.819 0 8.907 3.248 8.907 9.29m-5.15.56c0-3.806-1.343-5.59-4.309-5.59-2.965 0-4.869 2.184-4.869 5.483 0 3.974 1.904 5.712 6.154 5.712h3.023z" style="fill:#01574e;fill-opacity:1;stroke-width:.174639"/></svg>