<svg xmlns="http://www.w3.org/2000/svg" xml:space="preserve" fill-rule="evenodd" stroke-linejoin="round" stroke-miterlimit="2" clip-rule="evenodd" viewBox="0 0 358 112"><g fill-rule="nonzero"><path fill="url(#a)" d="M63.3 32c0 17.3-14 31.3-31.3 31.3S.7 49.3.7 32 14.7.7 32 .7s31.3 14 31.3 31.3M32 2.6C15.7 2.6 2.6 15.7 2.6 32S15.8 61.4 32 61.4c16.3 0 29.4-13.2 29.4-29.4C61.4 15.7 48.3 2.6 32 2.6" transform="translate(.418 .059)scale(1.7396)"/><path fill="url(#b)" d="M32 2.6C15.7 2.6 2.6 15.7 2.6 32S15.8 61.4 32 61.4c16.3 0 29.4-13.2 29.4-29.4C61.4 15.7 48.3 2.6 32 2.6m0 56.9C16.8 59.5 4.5 47.2 4.5 32S16.8 4.5 32 4.5 59.5 16.8 59.5 32 47.2 59.5 32 59.5" transform="translate(.418 .059)scale(1.7396)"/><path fill="url(#c)" d="M32 63.3c17.3 0 31.3-14 31.3-31.3S49.3.7 32 .7.7 14.7.7 32s14 31.3 31.3 31.3M32 0c17.6 0 32 14.4 32 32S49.6 64 32 64 0 49.6 0 32 14.4 0 32 0" transform="translate(.418 .059)scale(1.7396)"/><path fill="#fff" d="M4.245 55.9c0-28.53 23.137-52.014 51.84-52.014s51.84 23.31 51.84 52.014c0 28.53-23.137 51.666-51.84 51.666S4.245 84.43 4.245 55.9m16.178-35.836c-9.22 9.22-14.96 21.92-14.96 35.836s5.74 26.616 14.786 35.662c9.22 9.046 21.92 14.786 35.836 14.786s26.616-5.566 35.662-14.786c9.22-9.046 14.786-21.745 14.786-35.662s-5.74-26.616-14.786-35.836-21.745-14.96-35.662-14.96-26.616 5.74-35.662 14.96"/><path fill="url(#d)" d="M32 59.6c-7.4 0-14.3-2.9-19.5-8.1S4.4 39.4 4.4 32s2.9-14.3 8.1-19.5S24.6 4.4 32 4.4s14.3 2.9 19.5 8.1 8.1 12.1 8.1 19.5-2.9 14.3-8.1 19.5-12.1 8.1-19.5 8.1m0-.8c7.1 0 13.9-2.8 18.9-7.8 5.1-5.1 7.8-11.8 7.8-18.9s-2.8-13.9-7.8-18.9C45.8 8.1 39.1 5.4 32 5.4s-13.9 2.8-18.9 7.8C8 18.1 5.2 24.9 5.2 32S8 45.9 13 50.9c5.1 5.1 11.9 7.9 19 7.9" transform="translate(.418 .059)scale(1.7396)"/><path fill="#fff" d="M98.357 78.34c-.87-.695-34.444-27.31-34.444-27.31L56.085 6.32c-.522.174-1.218.696-1.566 1.392l-5.566 43.49-34.618 26.616s-.696.87-1.044 1.392c-.174.348-.174.87-.174 1.391l42.794-17.57 42.794 17.57c.348-.87 0-1.74-.348-2.261"/><path fill="#565f64" d="m56.433 57.118-.348 8.002L95.4 80.95c1.392.696 2.435.348 3.48-.348L56.954 56.944c-.174-.174-.522 0-.522.174"/><path fill="url(#e)" d="M32.2 32.8s1.3 2.3 2.8 3.9c2.1 2.3 4.9 3.9 4.9 3.9l14.7 5.9c.8.4 1.4.2 2-.2L32.5 32.7c-.1-.1-.3 0-.3.1" transform="translate(.418 .059)scale(1.7396)"/><path fill="#a4aaae" fill-opacity=".6" d="M98.705 79.037c0-.174-.174-.348-.348-.696L62.522 52.073l-4.871 3.131s.348.174.522 0c.521-.174 1.565-.348 2.609 0 .87.348 37.923 24.007 37.923 24.007z"/><path fill="#333e46" d="m97.487 77.471-33.4-26.442-1.565 1.044 35.835 26.442c-.174-.348-.522-.696-.87-1.044"/><path fill="#565f64" d="m56.955 54.508-.174.174s0 .348.348.174c.174-.174 5.219-2.783 6.958-3.827L58 9.28c-.174-1.566-.87-2.262-2.088-2.784l.696 48.361z"/><path fill="#a4aaae" fill-opacity=".6" d="M53.997 9.279v2.261L50.17 49.985c0 .522.174 1.044.696 1.392l2.262 1.74 1.565-42.447.174-3.305c-.522.348-.696 1.044-.87 1.914M51.91 53.812l-2.088-1.74L14.51 77.646s-1.044.696-1.218 1.392l1.218-.696 37.053-23.31c.696-.349.87-.697.348-1.219"/><path fill="#565f64" d="M55.563 57.118c0-.174-.174-.348-.348-.174L13.117 80.776c1.044.696 2.087.87 3.48.348l39.314-15.83z"/><path fill="url(#f)" d="m32.4 31.4.1-.1zs0 .1.1.1h.1c.1-.1 3-1.6 4-2.2l-.4-2.9-3.1-21.1q0-.6-.3-.9s1.5 20.2 1.5 22.4c0 2.9-1.9 4.6-1.9 4.6" transform="translate(.418 .059)scale(1.7396)"/><path fill="url(#g)" d="M31.7 32.8c0-.1-.1-.2-.2-.1L7.3 46.4c.6.4 1.2.5 2 .2l22.6-9.1z" transform="translate(.418 .059)scale(1.7396)"/><path fill="url(#h)" d="m9.3 46.5 22.6-9.1-.2-4.4c-.4 1.2-1.1 2.5-3 3.5-1.4.8-14.8 7.4-19.6 9.7-.3.2-.7.3-.9.4.4.2.7.1 1.1-.1" transform="translate(.418 .059)scale(1.7396)"/><path fill="url(#i)" d="m32.5 31.3-.1.1s0 .2.2.1c.1-.1 3-1.6 4-2.2l-3.5-24c-.1-.9-.5-1.3-1.2-1.6l.4 27.8z" transform="translate(.418 .059)scale(1.7396)"/><path fill="url(#j)" d="m32.5 31.3-.1.1s0 .2.2.1c.1-.1 3-1.6 4-2.2l-3.5-24c-.1-.9-.5-1.3-1.2-1.6l.4 27.8z" transform="translate(.418 .059)scale(1.7396)"/><path fill="url(#k)" d="M5.1 44.4C4.4 42.8.4 35 4.8 20H3.1c-.9 3-1.6 4.8-2 7.5 0 0-.2 1-.3 2.1S.7 31.3.7 32c0 6 1.5 9.5 1.5 9.5 1.6 5 4.4 9.5 8.2 12.9 3.3 2.9 8.4 5.1 12.6 5.9-.7-.1-12.7-5.2-17.9-15.9" transform="translate(.418 .059)scale(1.7396)"/><path fill="url(#l)" d="M32.4 32.6h-.9c.1 0 .2 0 .2.1l.2 4.6h.1l.2-4.6c0-.1.1-.2.2-.1" transform="translate(.418 .059)scale(1.7396)"/><path fill="url(#m)" d="M42 2.3c10.5 4 20.4 15 20.4 28.9C62.4 48 49 61.7 32 61.7v1.6c17 0 31.3-14 31.3-31.3 0-13.8-8.8-25.4-21.3-29.7" transform="translate(.418 .059)scale(1.7396)"/><path fill="url(#n)" d="M32.3.7H32z" transform="translate(.418 .059)scale(1.7396)"/><path fill="url(#o)" d="M58.8 20.2C51.8 4.1 36 3.2 35.1 3.1H35c12.1 2.2 19.8 10.1 22.5 18.4v.1c1.2 3.2 1.8 6.6 1.9 10.3.1 3.5-.7 7.4-2.2 11-.1.5-.2 1.1-.3 1.1h1.6c4.8-9 2.7-18.1.3-23.8" transform="translate(.418 .059)scale(1.7396)"/><path fill="#fbfbfb" d="M4.245 55.9c0-28.53 23.137-52.014 51.84-52.014s51.84 23.31 51.84 52.014c0 28.53-23.137 51.666-51.84 51.666S4.245 84.43 4.245 55.9m16.178-35.836c-9.22 9.22-14.96 21.92-14.96 35.836s5.74 26.616 14.786 35.662c9.22 9.046 21.92 14.786 35.836 14.786s26.616-5.566 35.662-14.786c9.22-9.046 14.786-21.745 14.786-35.662s-5.74-26.616-14.786-35.836-21.745-14.96-35.662-14.96-26.616 5.74-35.662 14.96"/><path fill="#333f47" d="M14.16 77.993 49.649 52.42c1.914 1.044 5.045 2.435 5.393 2.435.348.174.348-.174.348-.174L51.04 51.03c-.522-.348-.696-.87-.696-1.392L54.52 7.713c-.174.174-.174.522-.348.696-.174.348-.174.522-.174.87L47.91 51.203l-33.4 26.268c-.174.174-.348.348-.348.522"/></g><path d="M320.06 40.31h35.65c.58 0 1.06-.48 1.06-1.06v-8.9c0-.58-.48-1.06-1.06-1.06h-17.52c-.58 0-1.06.48-1.06 1.06v1.61c0 .58.48 1.06 1.06 1.06h11.51c.19 0 .35.16.35.35v1.72c0 .19-.16.35-.35.35h-22.91c-.58 0-1.06-.48-1.06-1.06v-6.6c0-.58.48-1.06 1.06-1.06h28.93c.58 0 1.06-.48 1.06-1.06v-2.42c0-.58-.48-1.06-1.06-1.06h-35.65c-.58 0-1.06.48-1.06 1.06v16c-.01.59.47 1.07 1.05 1.07m-9.98 0h4.6c.58 0 1.06-.48 1.06-1.06v-16c0-.58-.48-1.06-1.06-1.06h-5.17c-.21 0-.4.05-.58.17l-12.61 8.23c-.36.23-.8.23-1.16 0l-12.61-8.23a1 1 0 0 0-.58-.17h-5.17c-.58 0-1.06.48-1.06 1.06v16c0 .58.48 1.06 1.06 1.06h4.6c.58 0 1.06-.48 1.06-1.06v-9.64c0-.18.09-.34.25-.43s.35-.08.5.01l9.76 6.12c.18.11.35.16.56.16h4.38c.21 0 .39-.05.56-.16l9.76-6.12c.16-.1.34-.1.5-.01s.26.25.26.43v9.64c.03.58.51 1.06 1.09 1.06m-38.65 0h-4.6c-.58 0-1.06-.48-1.06-1.06v-2.82c0-.19-.16-.35-.35-.35h-24.19c-.34 0-.63.14-.84.41l-2.53 3.27c-.28.36-.67.55-1.12.55h-6.32a.47.47 0 0 1-.44-.28.47.47 0 0 1 .05-.52L243.1 22.6c.21-.27.5-.41.84-.41h27.49c.58 0 1.06.48 1.06 1.06v16c0 .58-.47 1.06-1.06 1.06m-5.66-9.25v-3.97c0-.19-.16-.35-.35-.35h-17.14c-.23 0-.42.1-.56.27l-3.05 3.95c-.07.09-.08.2-.03.3s.14.16.25.16h20.53a.37.37 0 0 0 .35-.36m-79.39 9.25h-15.17a.47.47 0 0 1-.44-.28.47.47 0 0 1 .05-.52l13.07-16.91c.21-.27.5-.41.84-.41h15.02c.22 0 .41.12.51.32s.07.42-.06.6L187.22 39.9c-.21.27-.5.41-.84.41m11.03 0h-7.18a.47.47 0 0 1-.44-.28.47.47 0 0 1 .05-.52l13.07-16.91c.21-.27.5-.41.84-.41h7.04c.22 0 .41.12.51.32s.07.42-.06.6L198.26 39.9c-.22.27-.51.41-.85.41m9.89 0h-5.55a.47.47 0 0 1-.44-.28.47.47 0 0 1 .05-.52l13.07-16.91c.21-.27.5-.41.84-.41h5.4c.22 0 .41.12.51.32s.08.42-.06.6L208.14 39.9c-.21.27-.5.41-.84.41m8.93 0h-3.87a.47.47 0 0 1-.44-.28.47.47 0 0 1 .05-.52l13.07-16.91c.21-.27.5-.41.84-.41h3.73c.22 0 .41.12.51.32s.07.42-.06.6L217.08 39.9c-.22.27-.51.41-.85.41m8.56 0h-2.85a.47.47 0 0 1-.44-.28.47.47 0 0 1 .05-.52l13.07-16.91c.21-.27.5-.41.84-.41h2.7c.22 0 .41.12.51.32s.07.42-.06.6L225.63 39.9c-.21.27-.5.41-.84.41"/><g fill="#00a19b" fill-rule="nonzero"><path d="M158.72 50.31c-1.03-.64-3.05-.94-6.17-.94h-13.57v18.25h2.89v-7h10.68c3.13 0 5.15-.3 6.17-.93 1.05-.64 1.58-1.83 1.58-3.52v-2.33c.01-1.69-.52-2.88-1.58-3.53m-1.47 4.22v.85c0 1.13-.25 1.87-.73 2.19-.52.35-1.62.53-3.28.53h-11.36v-6.29h11.36c1.66 0 2.77.18 3.28.53.48.33.73 1.07.73 2.19M169.14 51.86h16.53v-2.49H166.3v18.25h19.37v-2.49h-16.53V59.4h15.84v-2.49h-15.84zM189.85 51.86h9.49v15.76h2.89V51.86h9.48v-2.49h-21.86zM237.21 50.3c-1.04-.63-3.06-.94-6.19-.94h-13.93v18.25h2.89v-6.96h11.36c2.41 0 3.32.31 3.66.58.48.37.72 1.1.72 2.17v4.21h2.89v-4.65c0-1.09-.29-1.97-.87-2.6-.36-.39-.83-.69-1.4-.88.74-.24 1.29-.55 1.66-.93.54-.56.81-1.43.81-2.59v-2.12c.01-1.7-.53-2.89-1.6-3.54m-1.41 4.23v.85c0 1.1-.25 1.84-.73 2.18-.52.36-1.62.54-3.27.54h-11.81v-6.29h11.81c1.65 0 2.75.18 3.27.55.48.35.73 1.08.73 2.17M267.6 50.44c-.64-.47-1.48-.8-2.52-1-1.01-.19-2.55-.29-4.57-.29h-6.4c-2.02 0-3.56.1-4.57.29-1.03.2-1.88.53-2.52 1-.72.53-1.24 1.26-1.56 2.18-.31.9-.46 2.11-.46 3.61v4.84c0 1.37.16 2.5.47 3.35.32.87.85 1.58 1.58 2.12.65.47 1.49.81 2.5 1 .99.19 2.54.28 4.59.28h6.37c2.07 0 3.62-.1 4.61-.28 1.01-.19 1.84-.53 2.48-1 .7-.51 1.22-1.23 1.54-2.13.32-.88.48-2.04.48-3.45v-4.94c0-1.4-.16-2.55-.48-3.44-.32-.91-.84-1.63-1.54-2.14m-5.96 14.83h-8.66c-1.21 0-2.14-.1-2.79-.29-.62-.18-1.1-.49-1.44-.91-.25-.3-.43-.67-.53-1.08-.11-.44-.16-1.19-.16-2.22v-4.66c0-1.03.05-1.78.16-2.22.1-.42.28-.78.53-1.08.34-.42.83-.72 1.44-.9.64-.19 1.58-.29 2.79-.29h8.66c1.21 0 2.14.1 2.78.29.61.18 1.1.49 1.44.9.23.29.4.64.5 1.03.11.42.16 1.09.16 2v5.21c0 .9-.05 1.57-.16 1.99-.1.4-.27.75-.5 1.04-.34.42-.83.72-1.44.91-.64.18-1.57.28-2.78.28M300.2 49.37h-2.88v15.39l-16.96-15.39h-4.1v18.25h2.9V51.99l17.21 15.63h3.83zM316.13 49.37l-11.44 18.25h3.32l2.44-3.91h14.95l2.51 3.91h3.13l-11.47-18.25zm-4.19 11.96 5.94-9.46 6.04 9.46zM356.75 59.37c-.3-.69-.81-1.24-1.52-1.62-.48-.27-1.12-.46-1.91-.58-.77-.11-1.92-.17-3.43-.17h-6.88c-2.07 0-3.43-.2-4.06-.6-.6-.38-.89-1.08-.89-2.14 0-1.04.3-1.73.91-2.1.65-.39 1.96-.59 3.89-.59h6.53c1.89 0 3.14.19 3.7.57.53.36.79 1.08.79 2.15v.53h2.8v-.77c0-.89-.11-1.64-.33-2.23-.22-.61-.58-1.11-1.06-1.49-.57-.44-1.36-.75-2.35-.92-.96-.17-2.66-.25-5.04-.25h-4.35c-3.22 0-5.38.37-6.61 1.14-1.25.78-1.89 2.15-1.89 4.06 0 1.87.56 3.21 1.66 3.99 1.09.77 2.9 1.15 5.53 1.15h8.09c1.64 0 2.73.19 3.23.57.48.36.72 1.07.72 2.1 0 1.26-.35 2.08-1.06 2.51-.75.45-2.41.68-4.95.68h-5c-2.11 0-3.55-.21-4.3-.62-.71-.39-1.05-1.08-1.05-2.1q0-.18.03-.69l.05-.62h-2.79l-.04.21c-.01.06-.02.14-.02.24-.03.54-.04.92-.04 1.14 0 1.75.59 3.03 1.76 3.79 1.15.75 2.99 1.12 5.64 1.12h6.5c3.06 0 5.14-.4 6.34-1.21 1.21-.83 1.83-2.28 1.83-4.33.01-1.26-.14-2.24-.43-2.92"/></g><g fill-rule="nonzero"><path d="M176.75 82.73v.99h-5.41v6.37h-1.13V76.82h6.94v.99h-5.81v4.91h5.41zM190.75 83.44c0 4.04-2.15 6.86-5.19 6.86-3.12 0-5.23-2.81-5.23-6.94 0-3.94 2.19-6.76 5.21-6.76 3.06 0 5.21 2.83 5.21 6.84m-9.2-.06c0 3.48 1.63 5.91 3.98 5.91 2.33 0 3.98-2.43 3.98-5.85 0-3.4-1.65-5.83-3.98-5.83-2.3 0-3.98 2.43-3.98 5.77M196.93 76.82c2.05 0 2.65.06 3.52.36 1.37.44 2.23 1.69 2.23 3.28 0 1.75-.95 2.94-2.86 3.58l3.64 6.05h-1.39l-3.56-5.89h-2.47v5.89h-1.13V76.82zm.04 6.38c1.75 0 2.19-.04 2.86-.28 1.03-.36 1.61-1.25 1.61-2.49 0-1.13-.52-1.97-1.39-2.33-.64-.24-1.17-.3-3.06-.3h-.95v5.39h.93zM209 76.82l4 12 4-12h1.83v13.27h-1.13V77.86l-4.12 12.23h-1.13l-4.14-12.23v12.23h-1.13V76.82zM224.55 76.82v7.88c.02 2.39.06 2.75.5 3.36.52.78 1.59 1.23 2.86 1.23 1.43 0 2.57-.56 3.04-1.49.3-.58.32-.91.34-3.1v-7.88h1.13v7.9c0 2.17-.02 2.43-.26 3.1-.56 1.57-2.13 2.49-4.26 2.49-1.91 0-3.36-.74-4.04-2.03-.34-.66-.46-1.31-.46-2.59v-8.87zM238.17 76.82v12.27h5.65v.99H237V76.81h1.17zM252.25 76.72l4.6 13.37h-1.19l-1.29-3.76h-5.09l-1.31 3.76h-1.17l4.6-13.37zm-.44 1.61-2.23 7h4.44zM276.43 83.44c0 4.04-2.15 6.86-5.19 6.86-3.12 0-5.23-2.81-5.23-6.94 0-3.94 2.19-6.76 5.21-6.76 3.06 0 5.21 2.83 5.21 6.84m-9.19-.06c0 3.48 1.63 5.91 3.98 5.91 2.33 0 3.98-2.43 3.98-5.85 0-3.4-1.65-5.83-3.98-5.83-2.31 0-3.98 2.43-3.98 5.77M281.83 76.82l6.68 11.62V76.82h1.05v13.27h-1.31l-6.6-11.58v11.58h-1.07V76.82zM300.88 82.73v.99h-5.41v5.37h5.89v.99h-7.02V76.81h6.94v.99h-5.81v4.91h5.41zM318.36 76.82v.99h-3.42v12.27h-1.13V77.81h-3.44v-.99zM328.42 82.73v.99h-5.41v5.37h5.89v.99h-7.02V76.81h6.94v.99h-5.81v4.91h5.41zM337.11 76.72l4.6 13.37h-1.19l-1.29-3.76h-5.09l-1.31 3.76h-1.17l4.6-13.37zm-.44 1.61-2.23 7h4.44zM347.05 76.82l4 12 4-12h1.83v13.27h-1.13V77.86l-4.12 12.23h-1.13l-4.14-12.23v12.23h-1.13V76.82z"/></g><defs><linearGradient id="a" x2="1" gradientTransform="matrix(48 40.2 -40.2 48 8 11.9)" gradientUnits="userSpaceOnUse"><stop offset="0" stop-color="#fff"/><stop offset=".1" stop-color="#e7e8e6"/><stop offset=".1" stop-color="#cdd0d0"/><stop offset=".2" stop-color="#b5bbbd"/><stop offset=".2" stop-color="#a5acaf"/><stop offset=".3" stop-color="#9ba3a7"/><stop offset=".3" stop-color="#98a0a4"/><stop offset=".4" stop-color="#828a8f"/><stop offset=".5" stop-color="#667075"/><stop offset=".6" stop-color="#535c63"/><stop offset=".7" stop-color="#475158"/><stop offset=".8" stop-color="#434d54"/><stop offset="1" stop-color="#475157"/></linearGradient><linearGradient id="b" x2="1" gradientTransform="matrix(45 37.8 -37.8 45 9.5 13.1)" gradientUnits="userSpaceOnUse"><stop offset="0" stop-color="#0b1f2a"/><stop offset=".2" stop-color="#333f47"/><stop offset=".5" stop-color="#777f84"/><stop offset=".5" stop-color="#81898d"/><stop offset=".7" stop-color="#b3b8b8"/><stop offset=".8" stop-color="#d2d5d3"/><stop offset=".8" stop-color="#dee0dd"/><stop offset="1" stop-color="#fbfbfb"/></linearGradient><linearGradient id="c" x2="1" gradientTransform="scale(-64)rotate(70 .357 -.964)" gradientUnits="userSpaceOnUse"><stop offset="0" stop-color="#e1e3e1" stop-opacity=".4"/><stop offset=".1" stop-color="#c1c5c4" stop-opacity=".4"/><stop offset=".3" stop-color="#9ba1a2" stop-opacity=".4"/><stop offset=".5" stop-color="#7d8487" stop-opacity=".4"/><stop offset=".7" stop-color="#687074" stop-opacity="0"/><stop offset=".8" stop-color="#5b6469" stop-opacity="0"/><stop offset="1" stop-color="#576065" stop-opacity="0"/></linearGradient><linearGradient id="d" x2="1" gradientTransform="rotate(60 2.086 19.813)scale(55.2)" gradientUnits="userSpaceOnUse"><stop offset="0" stop-color="#e1e3e1" stop-opacity=".4"/><stop offset=".1" stop-color="#c1c5c4" stop-opacity=".4"/><stop offset=".3" stop-color="#9ba1a2" stop-opacity=".4"/><stop offset=".5" stop-color="#7d8487" stop-opacity=".4"/><stop offset=".7" stop-color="#687074" stop-opacity="0"/><stop offset=".8" stop-color="#5b6469" stop-opacity="0"/><stop offset="1" stop-color="#576065" stop-opacity="0"/></linearGradient><linearGradient id="e" x2="1" gradientTransform="rotate(121 11.273 32.317)scale(3.3)" gradientUnits="userSpaceOnUse"><stop offset="0" stop-color="#27343c"/><stop offset="1" stop-color="#00111e" stop-opacity="0"/></linearGradient><linearGradient id="f" x2="1" gradientTransform="rotate(-122 27.883 3.55)scale(5.3)" gradientUnits="userSpaceOnUse"><stop offset="0" stop-color="#02131f"/><stop offset=".1" stop-color="#02131f"/><stop offset=".9" stop-color="#02131f" stop-opacity="0"/><stop offset="1" stop-color="#02131f" stop-opacity="0"/></linearGradient><linearGradient id="g" x2="1" gradientTransform="matrix(-4.2 1.2 -1.2 -4.2 32 36.4)" gradientUnits="userSpaceOnUse"><stop offset="0" stop-color="#02131f" stop-opacity=".8"/><stop offset=".2" stop-color="#02131f" stop-opacity=".8"/><stop offset=".9" stop-color="#02131f" stop-opacity="0"/><stop offset="1" stop-color="#02131f" stop-opacity="0"/></linearGradient><linearGradient id="h" x2="1" gradientTransform="matrix(-.6 -1.5 1.5 -.6 20.8 41.9)" gradientUnits="userSpaceOnUse"><stop offset="0" stop-color="#02131f" stop-opacity=".8"/><stop offset=".1" stop-color="#02131f" stop-opacity=".8"/><stop offset="1" stop-color="#02131f" stop-opacity="0"/></linearGradient><linearGradient id="i" x2="1" gradientTransform="rotate(180 17.234 9.614)scale(3.4)" gradientUnits="userSpaceOnUse"><stop offset="0" stop-color="#02131f"/><stop offset=".3" stop-color="#02131f"/><stop offset=".8" stop-color="#02131f" stop-opacity="0"/><stop offset="1" stop-color="#02131f" stop-opacity="0"/></linearGradient><linearGradient id="j" x2="1" gradientTransform="rotate(180 17.22 9.673)scale(2.3)" gradientUnits="userSpaceOnUse"><stop offset="0" stop-color="#27343c"/><stop offset=".4" stop-color="#27343c"/><stop offset="1" stop-color="#3b474e" stop-opacity="0"/></linearGradient><linearGradient id="k" x2="1" gradientTransform="rotate(30 -61.618 15.657)scale(32.2)" gradientUnits="userSpaceOnUse"><stop offset="0" stop-color="#24303a" stop-opacity="0"/><stop offset="0" stop-color="#25323b" stop-opacity="0"/><stop offset=".1" stop-color="#27343c"/><stop offset="1" stop-color="#27343c"/></linearGradient><linearGradient id="l" x2="1" gradientTransform="matrix(0 -4.8 4.8 0 32 37.4)" gradientUnits="userSpaceOnUse"><stop offset="0" stop-color="#a5abaf"/><stop offset=".3" stop-color="#a5abaf"/><stop offset="1" stop-color="#a5abaf" stop-opacity="0"/></linearGradient><linearGradient id="m" x2="1" gradientTransform="rotate(90 22.7 25)scale(61)" gradientUnits="userSpaceOnUse"><stop offset="0" stop-color="#dee0dd"/><stop offset="0" stop-color="#c5c9c7"/><stop offset="0" stop-color="#9ea4a5"/><stop offset="0" stop-color="#82898c"/><stop offset="0" stop-color="#71797d"/><stop offset="0" stop-color="#6b7378"/><stop offset=".2" stop-color="#333f47"/><stop offset=".5" stop-color="#27343c"/><stop offset=".8" stop-color="#333f47"/><stop offset="1" stop-color="#434d54"/></linearGradient><linearGradient id="n" x2="1" gradientTransform="matrix(0 0 0 0 32.1 .7)" gradientUnits="userSpaceOnUse"><stop offset="0" stop-color="#dee0dd"/><stop offset="0" stop-color="#c5c9c7"/><stop offset="0" stop-color="#9ea4a5"/><stop offset="0" stop-color="#82898c"/><stop offset="0" stop-color="#71797d"/><stop offset="0" stop-color="#6b7378"/><stop offset=".2" stop-color="#333f47"/><stop offset=".5" stop-color="#27343c"/><stop offset=".8" stop-color="#333f47"/><stop offset="1" stop-color="#434d54"/></linearGradient><linearGradient id="o" x2="1" gradientTransform="matrix(-13.5 19.8 -19.8 -13.5 57.3 8.1)" gradientUnits="userSpaceOnUse"><stop offset="0" stop-color="#27343c"/><stop offset=".7" stop-color="#27343c"/><stop offset=".7" stop-color="#2b373f"/><stop offset=".7" stop-color="#36424a"/><stop offset=".7" stop-color="#49545b"/><stop offset=".8" stop-color="#646d73" stop-opacity="0"/><stop offset=".8" stop-color="#868d92" stop-opacity="0"/><stop offset=".8" stop-color="#b0b5b8" stop-opacity="0"/><stop offset=".8" stop-color="#e1e3e4" stop-opacity="0"/><stop offset=".8" stop-color="#fff" stop-opacity="0"/><stop offset="1" stop-color="#fff" stop-opacity="0"/></linearGradient></defs></svg>