<svg xmlns="http://www.w3.org/2000/svg" width="1024" height="396" version="1.0" viewBox="-1.773 -1.773 161.952 62.639"><path d="M82.406 0a9.12 9.12 0 0 0-7.344 3.719l-.03-.063c-.236-.106-.5-.14-.782-.156-.623-.033-1.158.199-1.625.562-.815.533-1.858.518-2.625 1.188-.178.129-.33.371-.531.469-.259.04-.532.069-.782.125-.58.137-1.063.477-1.5.906-.266.21-.55.341-.875.406-.71.024-1.403.204-1.968.625-.59.451-1.174.881-1.844 1.156-.355.137-.834.118-1.125-.156-.283-.226-.339-.544-.25-.875.21-.451.611-.826 1.031-1.125.558-.42 1.036-1.006.844-1.75-.291-.945-1.317-.96-2.094-1.219l-.187-.093c-.29-.154-.389-.317-.688-.438-.114-.04-.185.053-.25.125-.194.339-.285.69-.187 1.094.136.606.753 1.152 1.375 1.25.137.032.298.022.437.062a7.4 7.4 0 0 0-1.187 1.125c-.462.543-.573 1.425-.282 2.063.25.637.893 1.145 1.563 1.25.429.08.901.009 1.312-.031.024.541.07 1.087.313 1.531v.156a1.53 1.53 0 0 1-.656.375c-.17.016-.363-.032-.532 0-.25.016-.348.236-.437.438-.193.298-.098.681-.469.843l-.437-.375c-.397-.226-.717.174-1.032.344a.63.63 0 0 0-.312.438c-.241.121-.504.265-.625.531-.08.161-.063.385-.094.562-.072.145-.179.27-.187.438.025.114.028.255.125.344.235.137.49.186.75.25.137.032.23-.077.343-.125.372.088.832.198 1.22.093.387-.105.475-.555.718-.812.194-.056.367.085.562.094.34-.025.608-.277.907-.407.185-.128.353-.316.531-.437.177-.073.329-.079.531-.063.5.105 1.149.188 1.625-.062.266-.138.514-.326.813-.406.427-.21.445-.724.718-1.032l.188-.406c.597.089 1.113-.27 1.719-.125.653.13 1.446.255 2.125.094.12.121.255.182.343.312-.233.048-.486.025-.656.22-.355-.163-.776-.033-1.156 0-.201.008-.426.087-.531.28a.55.55 0 0 0 0 .407l.531.843c.072.082.13.172.25.188.121.032.285-.026.406.031.121.218.235.448.438.625.258.226.676.3 1.031.219a38 38 0 0 0 1.781-.688l.75-.093c.243-.082.371-.353.469-.563a9.16 9.16 0 0 0 7.531 3.938c3.076 0 5.79-1.539 7.438-3.875.01.026.023.072.031.093.034.085.092.223.156.282.161.193.44.116.656.125.145.105.3.263.47.312.5.129.983.268 1.468.438.154.047.33.095.5.062.412-.089.81-.456.906-.875.016-.154.231-.036.313-.125.282-.226.383-.569.593-.844a.47.47 0 0 0 .032-.375.47.47 0 0 0-.25-.218c-.404-.113-.884-.053-1.313-.094l-.094-.094c-.088-.081-.198-.061-.312-.094l.25-.187c.525.015 1.07-.02 1.562-.125.388-.09.79-.141 1.22-.125.515.032 1.067.083 1.593-.031.12.493.129.947.5 1.343.267.34.645.485.969.72.338.162.777.05 1.125-.032.784-.016 1.38.414 1.969.875.282.185.693.121.968-.031.121.168.238.331.406.468.373.34.93.194 1.407.22a.3.3 0 0 0 .219.124l.874-.281.094-.094c.154-.226-.012-.461-.094-.656-.048-.169-.038-.354-.093-.531-.081-.267-.351-.434-.594-.532a.46.46 0 0 0-.125-.28c-.275-.21-.552-.44-.844-.626-.306-.064-.509.181-.719.375-.08.024-.107-.107-.156-.156-.114-.299-.197-.637-.344-.938-.16-.322-.497-.305-.812-.312-.138 0-.286-.011-.375-.125-.016-.226.101-.43.125-.625.081-.364.096-.826.031-1.156.154 0 .276.055.438.062.428.008.831-.087 1.187-.281.605-.364 1.046-.954 1.063-1.656a2.5 2.5 0 0 0-.281-1c-.283-.558-.748-1.058-1.25-1.469.325-.065.624-.135.906-.313.597-.378.745-1.024.656-1.687-.032-.21-.056-.465-.25-.594-.235-.114-.285.215-.437.313-.267.273-.67.222-1 .343-.598.194-1.33.604-1.5 1.282-.097.936.825 1.463 1.374 2.093.267.308.527.643.47 1.063-.064.177-.228.326-.407.406-.638.226-1.225-.137-1.75-.437-.896-.622-1.838-1.254-2.969-1.375-.54-.105-.977-.475-1.437-.782a3.6 3.6 0 0 0-1.25-.437c-.364-.048-.592-.409-.907-.594-.45-.291-.935-.457-1.468-.562-.185-.057-.418-.065-.563-.219-.186-.218-.366-.433-.594-.594a2.37 2.37 0 0 0-1.593-.406c-.292.072-.515.26-.782.437-.006.005-.025-.004-.03 0C88.128 1.516 85.45 0 82.405 0" style="fill:#ffc423;fill-opacity:1;fill-rule:nonzero;stroke:none"/><path d="m39.438 31.719-2.5 4.968h9.343l2.5-4.968zm6.843 4.968L43.313 42.5h9.343l2.969-5.813zM43.313 42.5h-9.344L31 48.312h9.344zm-2.97 5.812-2.968 5.844h9.344l2.968-5.844zm-2.968 5.844h-9.344L25.5 59.094h9.344zm-9.344 0L31 48.312h-9.344l-2.968 5.844zm-6.375-5.844 2.969-5.812h-9.344l-2.969 5.812zm-9.343 0H2.969L0 54.156h9.344zM24.624 42.5h9.344l2.968-5.813h-9.343zM151.359 43.379h-27.244v-1.753h28.136z" style="fill:#a7a9ac;fill-opacity:1;fill-rule:nonzero;stroke:none"/><path d="M60 3.625c-.121.185-.141.399-.125.625.065.509.422.979.906 1.156.283.121.616.03.906.094.082.034.18.099.188.187-.016.08-.021.162-.094.22-.452.378-.934.75-1.312 1.218-.404.436-.46 1.2-.25 1.75.233.63.87 1.044 1.5 1.125.46.072.893-.068 1.312-.156.056 0 .07.061.094.093.041.372-.017.724.062 1.063.073.315.2.536.313.844a.33.33 0 0 1-.094.281 3.3 3.3 0 0 1-.719.406l-.625.063-.125.031c-.235.275-.26.569-.406.875-.195.322-.545.47-.844.656a2 2 0 0 1-.343.438.65.65 0 0 1-.375.156c-.219.251-.255.597-.313.937.355.032.717.227 1.063.032.3-.137.367-.502.593-.719.18-.194.448-.071.657-.031.316.016.546-.208.812-.313.186-.121.338-.316.531-.437.372-.178.893-.074 1.282 0 .306.08.64.027.906-.094.25-.154.466-.373.75-.438.25-.128.364-.39.469-.625.08-.217.296-.406.281-.656-.065-.056-.121-.164-.219-.156-.121.17-.206.339-.344.5-.532.727-1.393.875-2.25.875-.88-.033-1.674.25-2.28.937-.04.024-.093.002-.126-.03-.024-.097.054-.147.094-.22.541-.766 1.392-.952 2.281-.968.485-.032.933-.103 1.344-.313.46-.234.775-.704.969-1.156.103-.509.152-1.078.281-1.563.016-.047.084-.078.125-.062.049.009.094.067.094.125-.089.5-.132 1.079.062 1.562.388.51 1.069.15 1.594.125.549-.048 1.039.155 1.562.188.26-.009.548.068.75-.094.057-.089-.015-.184-.03-.281-.017-.145-.107-.349.03-.469.042-.034.093-.01.125.031.073.202.12.417.25.594.26.331.645.596 1 .781.34.234.602.557.625.97 0 .21-.182.37-.343.468-.275.136-.584.251-.907.219-.427-.21-.53-.67-.812-1-.145-.163-.376-.204-.594-.188-.234.025-.446.022-.656.094-.056.049-.07.146-.063.219.147.266.308.515.47.781.185.114.43-.076.593.125.137.21.227.464.437.625.202.177.515.269.782.156.597-.186 1.192-.389 1.75-.687h.187c.226-.025.464-.018.625-.188.178-.257.331-.475.469-.75.137-.185.056-.486 0-.687-.275-.34-.416-.707-.563-1.094-.137-.04-.25-.133-.406-.125-.071.032-.177.012-.219.094l.625 1.281c.04.096.088.215.063.344-.089.267-.22.525-.438.718-.04.025-.092.057-.125 0 .074-.275.204-.56.188-.875l-.625-1.125c-.073-.153-.195-.29-.188-.468 0-.08.092-.155.157-.188.273-.089.601-.062.812-.281.274-.429.426-.835.5-1.344.016-.032.015-.093.063-.094.05-.016.07.038.093.063a2.12 2.12 0 0 1-.375 1.562c-.016.057-.032.115.032.157.307.096.647.012.906-.125.331.007.637-.078.937-.125.032.015.063.061.063.093-.201.227-.319.46-.375.75-.243.25-.6.48-.625.844.04.178.207.015.312.031.05.008.063.047.063.094l-.219.344c-.129.21 0 .455 0 .656.056.161.269.25.438.25.363-.016.677-.167 1-.281.356-.153.798-.128 1.187-.063.379-.023.655-.28.938-.53.153 0 .301.104.406.218.436.467.992.674 1.687.625.04-.04.018-.124-.03-.156l-.376-.188c-.267-.17-.597-.389-.687-.687a3.7 3.7 0 0 0-.375-.844c-.057-.129-.188-.214-.188-.375.42.145.681.566.875.937.306.428.745.763 1.375.625a.08.08 0 0 0 0-.093l-.281-.125c-.485-.284-.701-.83-1-1.25-.105-.154-.278-.253-.375-.407-.346-.945-.661-1.887-.75-2.968-.073-.268-.105-.532-.25-.782-.436-.71-1.013-1.376-1.563-2.03-.047-.048-.132-.062-.156-.126L75.5 4.312a4 4 0 0 0-.781-.437c-.403-.154-.949-.106-1.344.062-.413.218-.783.543-1.219.688-.63.282-1.334.327-1.875.812-.315.274-.594.698-1.062.625-.525-.025-.979.177-1.375.5-.355.323-.697.693-1.157.782-.403.17-.9.096-1.312.25-.654.161-1.163.667-1.719 1.062-.557.324-1.086.673-1.781.656-.453-.03-.886-.345-1.031-.78a1.29 1.29 0 0 1 .406-1.345c.412-.492 1.051-.778 1.375-1.343.169-.298.164-.779-.063-1.063-.427-.444-1.067-.457-1.625-.594-.355-.097-.622-.393-.937-.562m30.719.031c-.243.015-.439.183-.625.344-1.235 1.082-2.652 1.826-3.782 3.062-.76.783-.966 1.79-1.25 2.75-.402 1.454-.57 3.042-2.03 3.938-.026.04-.018.124.03.156.388.098.774-.077 1.032-.344a7.4 7.4 0 0 1 .843-1.125l.094-.03c.04.007.079.004.063.062-.098.322-.372.582-.469.906-.129.387-.521.678-.844 1 0 .041.054.086.094.094.711.032 1.21-.493 1.687-.969.048-.048.123-.016.188 0 .21.161.382.381.656.437.293-.04.6-.087.906-.062.428.129.853.323 1.282.469.217-.009.387-.229.5-.407.09-.21-.047-.423-.032-.625.105-.065.232.032.344 0 .049-.032.094-.098.094-.156-.08-.371-.426-.653-.531-1-.162-.445-.684-.711-.782-1.187.025-.033.053-.064.094-.032.346.25.666.593 1.094.657.324.032.646.056.969.031.048-.015.11-.069.093-.125a5 5 0 0 1-.343-.906c-.113-.397-.224-.939-.094-1.375.024-.033.076-.11.125-.094.065.016.117.1.125.156.049.686.056 1.334.469 1.875.177.283.5.314.718.531.08.114.088.31.032.438l-.5.719c-.114.161-.21.355-.25.531-.042.202-.017.4 0 .594-.033.016-.062-.047-.094-.063-.129-.266-.263-.591-.125-.906l.625-.969.031-.062a1.8 1.8 0 0 0-.437-.188.5.5 0 0 0-.188.156l-.594 1.125c-.04.13-.095.207-.062.344.032.161.082.332.156.469.048.226.084.392.188.594.153.17.368.013.562.062s.274.257.469.313c.436.145.907.236 1.344.406.226.072.547.155.75-.031.282-.153.357-.437.406-.719.089-.121.245-.085.375-.125.241-.161.322-.439.5-.656l.031-.125c-.024-.073-.09-.102-.156-.125h-.813c-.38.047-.4.46-.562.718-.09.162-.283.235-.469.22-.386-.106-.854-.175-1.031-.595-.024-.105-.019-.24.062-.312a5 5 0 0 1 .688-.688c.355-.073.689-.34.875-.656.096-.137.087-.332.25-.437.047-.009.094-.018.125.031.074.234-.053.455-.125.656.88.089 1.612-.251 2.469-.219.362 0 .706.087 1.062.063.354-.016.731-.159.844-.531.162-.477.049-1.018-.031-1.469l.031-.094c.056-.031.115.03.156.063.153.427.248.938.313 1.406.065.412.242.777.468 1.125.412.614 1.157.841 1.876.687.872-.065 1.622.314 2.156 1.032-.018.032-.054.071-.094.062-.461-.355-.941-.74-1.531-.812-.621-.113-1.169.172-1.75-.063-.638-.209-1.125-.856-1.375-1.437h-.063c-.049.007-.085.076-.094.125l.094.5c.095.403.22.877.656 1.062.34.203.674.488 1.094.375.735-.161 1.465.058 2.031.469.186.105.33.271.532.344.219.088.51.052.687-.094.411-.136.499.376.781.562.25.242.677.165 1.063.125a3 3 0 0 0-.25-.906c-.411.024-.603-.399-.844-.656-.202-.235-.601-.371-.594-.719-.072-.137-.09-.354-.156-.531-.056-.145-.119-.374-.312-.406-.348-.057-.781.041-1-.282-.226-.242.052-.516.094-.75.096-.298.08-.693.03-1-.008-.177-.126-.322-.093-.5.081-.153.285-.047.406-.03.453.128.995.052 1.406-.126.567-.274.993-.846.97-1.5-.082-.849-.69-1.545-1.344-2.094-.122-.105-.273-.19-.313-.343-.016-.332.377-.17.563-.25.226-.057.438-.122.624-.25.493-.332.598-.935.5-1.5-.014-.049-.02-.094-.093-.094-.09.074-.169.155-.281.219-.316.186-.732.15-1.063.312-.411.178-.916.438-1.094.906-.047.234-.011.494.094.688.5.791 1.58 1.296 1.75 2.25.065.387-.139.656-.437.875-.453.274-1.143.18-1.594-.063-.873-.436-1.625-1.168-2.563-1.468-.589-.267-1.319-.183-1.844-.594-.395-.259-.742-.606-1.187-.719-.306-.105-.655-.096-.938-.25a4.3 4.3 0 0 0-.937-.656c-.469-.235-.983-.355-1.5-.469-.306-.072-.437-.425-.688-.594-.428-.338-.886-.58-1.468-.53m-18.625 9.469c-.259.04-.524.062-.782.062l-.093.063c-.049.152.178.144.218.281.162.178.158.456.344.594.243.04.47-.074.656-.219.105-.089-.046-.207-.062-.312-.105-.154-.023-.461-.281-.469m20.843.156c-.217.041-.468-.001-.687.031-.096.145-.18.307-.156.5.023.203.261.224.406.282.137.016.334.083.406-.063.08-.21.155-.461.188-.687-.017-.064-.092-.079-.157-.063m-32.625.188c-.03.005-.065.023-.093.031-.179.154-.369.254-.563.375-.081.056-.046.192-.062.281 0 .081.107.139.156.188.089.04.185.031.281 0 .251-.147.434-.422.563-.657-.024-.088-.115-.122-.188-.187-.024-.02-.062-.036-.094-.031m43.97.031c-.12.004-.221.128-.282.219.056.193.224.353.344.531a.36.36 0 0 0 .281.156.42.42 0 0 0 .281-.094c.056-.072.118-.176.094-.28-.154-.21-.401-.34-.594-.5-.04-.035-.085-.033-.125-.032m-45.095.875a.55.55 0 0 0-.28.344c-.04.258.014.501-.188.687-.008.049-.049.108 0 .156.177.057.345.133.562.157.098-.315.169-.663.281-.938v-.094c-.096-.12-.213-.28-.375-.312m46.094.062c-.112.097-.306.206-.281.375.097.29.162.483.219.782.032.056.005.187.094.187l.53-.187c.09-.145-.092-.238-.124-.375-.04-.185-.004-.457-.125-.625-.105-.082-.175-.189-.313-.157m-27.25 6.532v6.312c-.671-.665-1.586-1.093-2.562-1.094-2.09 0-3.782 1.87-3.782 4.157s1.692 4.125 3.782 4.125c.987 0 1.889-.415 2.562-1.094v.875h2.531V20.969zm25.594 0V34.28h2.531V20.97zm4.281 0V34.28h2.531V20.97zm-54.625.625V34.25h2.688v-10.5l1.375.031c.995 0 1.75.741 1.75 1.656 0 .917-.818 1.657-1.813 1.657l-.625-.032v3.063l2.688 4.125h3.187l-3.719-5.281c1.668-.4 2.907-1.865 2.907-3.625 0-2.068-1.705-3.75-3.813-3.75h-4.625M84 21.656v12.625l5.594-.031c2.14-.035 3.875-1.641 3.875-3.625 0-1.443-.513-2.458-2.219-3.25.692-.646 1.125-1.517 1.125-2.469 0-.862-.325-1.659-.906-2.281-.604-.664-1.682-.938-3.125-.938zm2.719 2.188h1.687a1.344 1.344 0 0 1 0 2.687h-.875v2.281h1.594c.899 0 1.594.725 1.594 1.625-.033.93-.618 1.564-1.594 1.625h-2.406zm-20.313 2.25c-2.31 0-4.156 1.881-4.156 4.218 0 2.34 1.848 4.25 4.156 4.25 1.764 0 3.167-.812 3.875-2.062l-2.062-.938c-.263.567-.882.938-1.594.938-.951 0-1.719-.691-1.719-1.563 0-.056-.037-.038-.031-.093h5.594c.017-.174.032-.35.031-.532.039-2.738-1.784-4.218-4.094-4.218m27.938.437v5.031c0 1.71 1.755 3.094 3.937 3.094s3.969-1.385 3.969-3.094v-5.03h-2.5v4.562c0 .76-.639 1.375-1.438 1.375s-1.468-.615-1.468-1.375l.031-4.563zm-27.907 1.313c.854 0 1.563.71 1.563 1.562h-3.094c0-.852.676-1.562 1.531-1.562m9.75.406c1.027 0 1.875.909 1.875 2.031s-.848 2.031-1.875 2.031c-1.025 0-1.843-.908-1.843-2.03 0-1.123.818-2.032 1.843-2.032m47.938 8.437v1.75H157.5l.906-1.75c-14.93.002-34.281 0-34.281 0" style="fill:#e51837;fill-opacity:1;fill-rule:nonzero;stroke:none"/><path d="M88.031 36.687v1.75h2.313v-1.75zm-43.344 1.75c-.247.018-.503.043-.718.125-1.039.363-1.681 1.46-1.782 2.5v3.625h2.25v-3.156c.05-.594.55-1.195 1.126-1.344h8.25l.906-1.75zm13.563 0c-.831.018-1.468.663-1.813 1.407-.422.841-.406 2.061-.187 2.968.235.842.887 1.727 1.75 1.875h6.875c.875.033 1.779-.11 2.406-.656.33.363.88.597 1.375.656.464.057.969.066 1.344 0 .326-.056.275-.138.094-.343-.264-.297-.622-.619-.688-1.032-.099-.907-.004-2.124-.219-3-.263-.957-.875-1.843-2.03-1.843zm16.219 0c-1.983 0-2.502 2.938-2.032 4.47.21.685.954 1.78 1.72 1.78h10.405V42.97s-9.12.055-9.437-.063c-.954-.351-.787-2.719.125-2.719h9.312v-1.75zm21.562 0c-1.21-.002-2.241 1.44-2.25 2.563v3.687h2.313V41.5c0-.393.326-1.313.812-1.313h6.156c.492 0 .907.753.907 1.188v3.312h2.312v-3.375c0-.407-.059-.77-.187-1.156-.239-.715-1.049-1.716-1.875-1.719zm15.094 0c-.241 0-.51.068-.719.188-1.286.73-1.571 2.511-1.344 3.844.134.781.918 2.217 1.844 2.218 2.916.007 8.375 0 8.375 0 0 1.057.183 1.907-.937 1.907H13.188l-.876 1.718h106.626c1.627 0 2.593-.897 2.593-2.562v-3.281c0-.755.068-1.617-.156-2.344-.21-.683-1.031-1.656-1.812-1.656zm-52.063 1.75h7.094c.693 0 1.204 1.54.563 2.125-.583.535-1.104.625-1.75.625h-5.907c-1.01 0-1.07-2.75 0-2.75m28.97 0v4.5h2.312v-4.5zm23.843 0h6.625c.924 0 .781 1.957.781 2.75h-7.406c-.761 0-1.031-1.82-.312-2.562.063-.066.218-.188.312-.188m12.25 6.407v1.718h21.063l.906-1.718zM57.969 51c-.872 0-1.688.642-1.688 1.563 0 .984.716 1.687 1.688 1.687s1.687-.703 1.687-1.687c0-.92-.815-1.563-1.687-1.563M84 51c-.871 0-1.656.642-1.656 1.563 0 .984.685 1.687 1.656 1.687.972 0 1.687-.703 1.687-1.687 0-.92-.815-1.563-1.687-1.563m-30.719.094v3.062h.781v-1.218h.875v-.657h-.875v-.5H55v-.687zm7.719 0v3.062h.781V52.97l.75 1.187h1l-.969-1.25c.43-.076.657-.456.657-.875 0-.65-.434-.937-1.032-.937zm4.062 0-.5 3.062h.782l.25-1.781.687 1.781h.313l.75-1.781.218 1.781h.782l-.469-3.062h-.781l-.625 1.625-.625-1.625zm4.594 0v1.718c0 .392.011.77.313 1.063.252.25.646.344 1 .344.353 0 .777-.094 1.031-.344.301-.294.312-.671.312-1.062v-1.72h-.78v1.594c0 .396-.058.844-.563.844-.507 0-.532-.448-.532-.843v-1.594zm4.156 0v3.062h1.72v-.687h-.938v-2.375zm3.875 0L76.5 54.156h.844l.218-.531h1.063l.219.531h.843l-1.156-3.062zm9.344 0v3.062h.813v-1.875l1.437 1.875h.781v-3.062h-.78v1.875l-1.438-1.875zm4.563 0v3.062h1.718v-.687h-.937v-.532h.875v-.656h-.875v-.5h.937v-.687zm4.531 0v.687h.656v2.375h.781v-2.375h.657v-.687zm3.375 0v3.062h1.719v-.687h-.938v-.532h.875v-.656h-.875v-.5h.938v-.687zm4.094 0-1.156 3.062h.812l.219-.531h1.094l.187.531h.844l-1.156-3.062zm3.562 0-.5 3.062h.781l.25-1.781.688 1.781h.313l.75-1.781.218 1.781h.781L110 51.094h-.781l-.656 1.625-.626-1.625zm-45.375.625h.094c.256 0 .531.044.531.375s-.275.375-.531.375h-.094zm-3.812.031c.47 0 .843.394.843.813 0 .523-.373.906-.843.906s-.844-.383-.844-.907c0-.418.374-.812.844-.812m26.031 0c.47 0 .875.394.875.813a.885.885 0 0 1-.875.906c-.47 0-.844-.383-.844-.907 0-.418.374-.812.844-.812m-5.906.281.343.969h-.656zm25.906 0 .344.969h-.656z" style="fill:#002f64;fill-opacity:1;fill-rule:nonzero;stroke:none"/></svg>